<svg width="44" height="44" viewBox="0 0 44 44" fill="none" xmlns="http://www.w3.org/2000/svg">
<path d="M22 0.879639C10.3356 0.879639 0.880005 10.3352 0.880005 21.9996C0.880005 33.664 10.3356 43.1196 22 43.1196C33.6644 43.1196 43.12 33.664 43.12 21.9996C43.12 10.3352 33.6644 0.879639 22 0.879639ZM30.591 18.1804C30.5998 18.3608 30.602 18.5412 30.602 18.7172C30.602 24.2172 26.4198 30.5554 18.7682 30.5554C16.5073 30.5592 14.2933 29.9098 12.3926 28.6854C12.716 28.725 13.0482 28.7404 13.3848 28.7404C15.334 28.7404 17.127 28.0782 18.5504 26.9606C17.683 26.9436 16.8425 26.6564 16.1461 26.139C15.4496 25.6216 14.932 24.8998 14.6652 24.0742C15.2881 24.1927 15.9299 24.1679 16.5418 24.0016C15.6003 23.8113 14.7536 23.3011 14.1454 22.5577C13.5371 21.8143 13.2046 20.8834 13.2044 19.9228V19.8722C13.7654 20.1824 14.4078 20.3716 15.0898 20.3936C14.2072 19.8061 13.5823 18.9035 13.3431 17.8705C13.1039 16.8375 13.2683 15.7522 13.8028 14.8364C14.8477 16.1212 16.1508 17.1723 17.6277 17.9215C19.1045 18.6708 20.7223 19.1015 22.3762 19.1858C22.1659 18.2933 22.2564 17.3563 22.6336 16.5206C23.0108 15.6848 23.6536 14.997 24.462 14.5642C25.2704 14.1314 26.1991 13.9778 27.1038 14.1273C28.0085 14.2768 28.8384 14.721 29.4646 15.3908C30.3956 15.2066 31.2884 14.8652 32.1046 14.381C31.7943 15.3449 31.1447 16.1634 30.2764 16.6844C31.1011 16.5851 31.9063 16.3634 32.6656 16.0266C32.1079 16.8624 31.4053 17.5918 30.591 18.1804Z" fill="white"/>
</svg>
